Conquest of the Planet of the Apes 1972 DTS BluRay x264-LoNeWoLf

Encoded by Tequila-Bob a.k.a. bobnjeff a.k.a.LoNeWoLf

 
http://www.imdb.com/title/tt0068408/

Conquest of the Planet of the Apes (1972) 
  88 min  -  Action | Sci-Fi   -  30 June 1972 (USA) 
  5.8/10 X  Users: 5.8/10 (6,291 votes) 70 reviews | Critics: 52 reviews 
In a futuristic world that has embraced ape slavery, Caesar, the son of the late simians Cornelius and Zira, surfaces after almost twenty years of hiding out from the authorities, and prepares for a slave revolt against humanity. 


Director: J. Lee Thompson
Writers: Paul Dehn, Pierre Boulle (characters)
Stars:Roddy McDowall, Don Murray and Ricardo Montalbac

Genres:Action | Sci-Fi 

Release Date:30 June 1972 (USA)

Rated: PG (Parental Guidance Suggested) 

Cast
Cast overview, first billed only: 
  Roddy McDowall  ...  Caesar  
  Don Murray  ...  Governor Breck  
  Ricardo Montalban  ...  Armando  
  Natalie Trundy  ...  Lisa  
  Hari Rhodes  ...  MacDonald  
  Severn Darden  ...  Chief Inspector Kolp  
  Lou Wagner  ...  Busboy  
  John Randolph  ...  Commission Chairman  
  Asa Maynor  ...  Mrs. Riley  
  H.M. Wynant  ...  Inspector Hoskins  
  David Chow  ...  Aldo  
  Buck Kartalian  ...  Frank - Gorilla  
  John Dennis  ...  Policeman  
  Paul Comi  ...  2nd Policeman  
  Gordon Jump  ...  Auctioneer  

[img]http://torrent-stats.info/1b86/1d3d15b8.png[/img]

See the full size 1920x816 PNG files at the link below

 
http://s1015.photobucket.com/albums/af279/tequila-bob/Conquest%20of%20the%20Planet%20of%20the%20Apes%201972/


Format : Matroska 
File size : 8.00 GiB 
Duration : 1h 27mn 
Overall bit rate : 13.1 Mbps 
Encoded date : UTC 2010-11-26 03:09:10 
Writing application : mkvmerge v4.4.0 ('Die Wiederkehr') built on Oct 31 2010 21:52:48 
Writing library : libebml v1.0.0 + libmatroska v1.0.0 

Video 
ID : 1 
Format : AVC 
Format/Info : Advanced Video Codec 
Format profile : High@L4.1 
Format settings, CABAC : Yes 
Format settings, ReFrames : 7 frames 
Muxing mode : Container profile=Unknown@4.1 
Codec ID : V_MPEG4/ISO/AVC 
Duration : 1h 27mn 
Bit rate : 11.5 Mbps 
Width : 1 920 pixels 
Height : 816 pixels 
Display aspect ratio : 2.35:1 
Frame rate : 23.976 fps 
Color space : YUV 
Chroma subsampling : 4:2:0 
Bit depth : 8 bits 
Scan type : Progressive 
Bits/(Pixel*Frame) : 0.307 
Stream size : 6.92 GiB (86%) 
Writing library : x264 core 98 r1649 c54c47d 
Encoding settings : cabac=1 / ref=8 / deblock=1:0:0 / analyse=0x3:0x133 / me=umh / subme=7 / psy=1 / psy_rd=1.00:0.15 / mixed_ref=1 / me_range=24 / chroma_me=1 / trellis=1 / 8x8dct=1 / cqm=0 / deadzone=21,11 / fast_pskip=1 / chroma_qp_offset=-3 / threads=6 / sliced_threads=0 / nr=0 / decimate=1 / interlaced=0 / constrained_intra=0 / bframes=5 / b_pyramid=1 / b_adapt=1 / b_bias=0 / direct=1 / weightb=1 / weightp=2 / keyint=250 / keyint_min=25 / scenecut=40 / intra_refresh=0 / rc_lookahead=50 / rc=2pass / mbtree=1 / bitrate=11518 / ratetol=1.0 / qcomp=0.60 / qpmin=10 / qpmax=51 / qpstep=4 / cplxblur=20.0 / qblur=0.5 / ip_ratio=1.40 / aq=1:1.50 
Language : English 

Audio 
ID : 2 
Format : DTS 
Format/Info : Digital Theater Systems 
Codec ID : A_DTS 
Duration : 1h 27mn 
Bit rate mode : Constant 
Bit rate : 1 510 Kbps 
Channel(s) : 6 channels 
Channel positions : Front: L C R, Side: L R, LFE 
Sampling rate : 48.0 KHz 
Bit depth : 24 bits 
Video delay : 10ms 
Stream size : 944 MiB (12%) 
Title : 3/2+1 
Language : English 

Text #1 
Language : English 
Language : Spanish 
Language : Chinese 
Language : Korean 
Language : Spanish 
Language : Spanish 
Language : French 
Language : French 

Menu & Chapters 20



See the full size 1920x816 PNG files at the link below


 
http://s1015.photobucket.com/albums/af279/tequila-bob/Conquest%20of%20the%20Planet%20of%20the%20Apes%201972/
